<svg xmlns="http://www.w3.org/2000/svg" width="14" height="14" viewBox="0 0 14 14" fill="none">
<path d="M0.689453 7C1.23808 4.01319 3.8549 1.75 7.00034 1.75C10.1457 1.75 12.7626 4.01319 13.3112 7C12.7626 9.98678 10.1457 12.25 7.00034 12.25C3.8549 12.25 1.23808 9.98678 0.689453 7ZM7.00034 9.91667C8.61116 9.91667 9.91701 8.61082 9.91701 7C9.91701 5.38917 8.61116 4.08333 7.00034 4.08333C5.38949 4.08333 4.08365 5.38917 4.08365 7C4.08365 8.61082 5.38949 9.91667 7.00034 9.91667ZM7.00034 8.75C6.03381 8.75 5.25032 7.96652 5.25032 7C5.25032 6.03347 6.03381 5.25 7.00034 5.25C7.96681 5.25 8.75034 6.03347 8.75034 7C8.75034 7.96652 7.96681 8.75 7.00034 8.75Z" fill="#336CFB"/>
</svg>