<svg xmlns="http://www.w3.org/2000/svg" width="20" height="20" viewBox="0 0 20 20" fill="none">
<path d="M10.0001 8.33329C11.841 8.33329 13.3334 6.84091 13.3334 4.99996C13.3334 3.15901 11.841 1.66663 10.0001 1.66663C8.15913 1.66663 6.66675 3.15901 6.66675 4.99996C6.66675 6.84091 8.15913 8.33329 10.0001 8.33329ZM4.58341 10.8333C5.73401 10.8333 6.66675 9.90054 6.66675 8.74996C6.66675 7.59937 5.73401 6.66663 4.58341 6.66663C3.43282 6.66663 2.50008 7.59937 2.50008 8.74996C2.50008 9.90054 3.43282 10.8333 4.58341 10.8333ZM17.5001 8.74996C17.5001 9.90054 16.5673 10.8333 15.4167 10.8333C14.2662 10.8333 13.3334 9.90054 13.3334 8.74996C13.3334 7.59937 14.2662 6.66663 15.4167 6.66663C16.5673 6.66663 17.5001 7.59937 17.5001 8.74996ZM10.0001 9.16663C12.3012 9.16663 14.1667 11.0321 14.1667 13.3333V18.3333H5.83341V13.3333C5.83341 11.0321 7.6989 9.16663 10.0001 9.16663ZM4.16675 13.3332C4.16675 12.7558 4.25064 12.198 4.4069 11.6713L4.26561 11.6836C2.80427 11.842 1.66675 13.0798 1.66675 14.5832V18.3332H4.16675V13.3332ZM18.3334 18.3332V14.5832C18.3334 13.0315 17.1217 11.7627 15.5932 11.6713C15.7495 12.198 15.8334 12.7558 15.8334 13.3332V18.3332H18.3334Z" fill="#64748B"/>
</svg>
