<svg xmlns="http://www.w3.org/2000/svg" width="35" height="35" viewBox="0 0 35 35" fill="none">
<path d="M30.6247 11.6667C32.2355 11.6667 33.5413 12.9725 33.5413 14.5834V20.4167C33.5413 22.0276 32.2355 23.3334 30.6247 23.3334H29.0761C28.3584 29.0884 23.4491 33.5417 17.4997 33.5417V30.625C22.3322 30.625 26.2497 26.7075 26.2497 21.875V13.125C26.2497 8.29255 22.3322 4.37504 17.4997 4.37504C12.6672 4.37504 8.74967 8.29255 8.74967 13.125V23.3334H4.37467C2.76384 23.3334 1.45801 22.0276 1.45801 20.4167V14.5834C1.45801 12.9725 2.76384 11.6667 4.37467 11.6667H5.92326C6.64091 5.91167 11.5502 1.45837 17.4997 1.45837C23.4491 1.45837 28.3584 5.91167 29.0761 11.6667H30.6247ZM11.3155 23.0197L12.8616 20.5461C14.2062 21.3882 15.796 21.875 17.4997 21.875C19.2033 21.875 20.7932 21.3882 22.1378 20.5461L23.6839 23.0197C21.891 24.1426 19.7712 24.7917 17.4997 24.7917C15.2282 24.7917 13.1084 24.1426 11.3155 23.0197Z" fill="white"/>
</svg>