<svg xmlns="http://www.w3.org/2000/svg" width="20" height="20" viewBox="0 0 20 20" fill="none">
<path d="M0.833984 18.3337C0.833984 14.6518 3.81875 11.667 7.50065 11.667C11.1826 11.667 14.1673 14.6518 14.1673 18.3337H0.833984ZM7.50065 10.8337C4.73815 10.8337 2.50065 8.59616 2.50065 5.83369C2.50065 3.07119 4.73815 0.833694 7.50065 0.833694C10.2632 0.833694 12.5007 3.07119 12.5007 5.83369C12.5007 8.59616 10.2632 10.8337 7.50065 10.8337ZM15.2059 2.65411C15.6107 3.63389 15.834 4.70772 15.834 5.83369C15.834 6.95967 15.6107 8.03349 15.2059 9.01324L13.8085 7.99697C14.0411 7.31863 14.1673 6.5909 14.1673 5.83369C14.1673 5.07649 14.0411 4.34875 13.8085 3.67041L15.2059 2.65411ZM17.957 0.65332C18.7317 2.21411 19.1673 3.97304 19.1673 5.83369C19.1673 7.69435 18.7317 9.45324 17.957 11.0141L16.5862 10.0172C17.1732 8.74441 17.5007 7.32727 17.5007 5.83369C17.5007 4.34012 17.1732 2.92302 16.5862 1.65026L17.957 0.65332Z" fill="#64748B"/>
</svg>