<svg xmlns="http://www.w3.org/2000/svg" width="20" height="20" viewBox="0 0 20 20" fill="none">
<path d="M3.33366 6.66669H16.667V17.5C16.667 17.9603 16.2939 18.3334 15.8337 18.3334H4.16699C3.70676 18.3334 3.33366 17.9603 3.33366 17.5V6.66669ZM5.83366 4.16669V2.50002C5.83366 2.03979 6.20676 1.66669 6.66699 1.66669H13.3337C13.7939 1.66669 14.167 2.03979 14.167 2.50002V4.16669H18.3337V5.83335H1.66699V4.16669H5.83366ZM7.50033 3.33335V4.16669H12.5003V3.33335H7.50033ZM7.50033 10V15H9.16699V10H7.50033ZM10.8337 10V15H12.5003V10H10.8337Z" fill="white"/>
</svg>